<svg xmlns="http://www.w3.org/2000/svg" xmlns:xlink="http://www.w3.org/1999/xlink" width="1890" zoomAndPan="magnify" viewBox="0 0 1417.5 1417.500002" height="1890" preserveAspectRatio="xMidYMid meet" version="1.0"><defs><filter x="0%" y="0%" width="100%" height="100%" id="6b443686f9"><feColorMatrix values="0 0 0 0 1 0 0 0 0 1 0 0 0 0 1 0 0 0 1 0" color-interpolation-filters="sRGB"/></filter><clipPath id="e7bb79d61a"><path d="M 0.0703125 110 L 1417 110 L 1417 1413.429688 L 0.0703125 1413.429688 Z M 0.0703125 110 " clip-rule="nonzero"/></clipPath><mask id="d9f9d0278e"><g filter="url(#6b443686f9)"><rect x="-141.75" width="1701" fill="#000000" y="-141.75" height="1701.000002" fill-opacity="0.25"/></g></mask><clipPath id="677b4f44cb"><path d="M 0.0703125 1 L 1417 1 L 1417 1303.429688 L 0.0703125 1303.429688 Z M 0.0703125 1 " clip-rule="nonzero"/></clipPath><clipPath id="4464c782f8"><rect x="0" width="1417" y="0" height="1304"/></clipPath></defs><g clip-path="url(#e7bb79d61a)"><g mask="url(#d9f9d0278e)"><g transform="matrix(1, 0, 0, 1, 0, 110)"><g clip-path="url(#4464c782f8)"><g clip-path="url(#677b4f44cb)"><path fill="#b1bec6" d="M 1371.195312 39.207031 C 1342.828125 15.617188 1303.660156 1.050781 1260.382812 1.050781 L 1074.679688 1.050781 C 1090.199219 85.238281 1037.554688 193.117188 973.871094 224.414062 C 883.605469 268.746094 822.703125 234.429688 820.054688 295.863281 C 847.953125 274.511719 885.195312 261.507812 926.089844 261.507812 L 1075.007812 261.507812 C 1090.410156 237.71875 1117.277344 222.359375 1147.234375 222.359375 L 1258.457031 222.359375 C 1271.777344 222.359375 1282.601562 233.113281 1282.601562 246.359375 C 1282.601562 251.730469 1280.832031 256.675781 1277.8125 260.699219 C 1356.175781 253.53125 1417.121094 198.332031 1417.121094 131.285156 C 1417.121094 95.3125 1399.566406 62.753906 1371.210938 39.207031 Z M 1371.195312 560.117188 C 1342.828125 536.542969 1303.660156 521.960938 1260.382812 521.960938 L 1095.269531 521.960938 L 1095.269531 833.578125 C 1123.894531 802.496094 1169.011719 782.460938 1219.757812 782.460938 L 1260.371094 782.460938 C 1346.910156 782.460938 1417.082031 724.15625 1417.082031 652.210938 C 1417.082031 616.253906 1399.523438 583.679688 1371.167969 560.117188 Z M 1371.195312 1081.070312 C 1342.828125 1057.496094 1303.660156 1042.914062 1260.382812 1042.914062 L 1219.773438 1042.914062 C 1183.890625 1042.914062 1150.859375 1032.898438 1124.433594 1016.039062 C 1114.925781 1062.496094 1073.546875 1097.492188 1023.980469 1097.492188 L 942.1875 1097.492188 L 940.246094 1116.207031 C 968.65625 1130.417969 988.171875 1159.675781 988.171875 1193.453125 C 988.171875 1241.1875 949.203125 1279.867188 901.164062 1279.867188 C 853.125 1279.867188 814.171875 1241.1875 814.171875 1193.453125 C 814.171875 1160.753906 832.480469 1132.273438 859.445312 1117.582031 L 855.222656 1097.492188 L 479.015625 1097.492188 L 477.074219 1116.207031 C 505.511719 1130.417969 524.996094 1159.675781 524.996094 1193.453125 C 524.996094 1241.1875 486.027344 1279.867188 437.992188 1279.867188 C 389.953125 1279.867188 351 1241.1875 351 1193.453125 C 351 1160.753906 369.308594 1132.273438 396.273438 1117.582031 L 392.050781 1097.492188 L 248.066406 1097.492188 C 242.878906 1097.492188 238.1875 1095.410156 234.800781 1092.023438 C 231.402344 1088.652344 229.304688 1083.988281 229.304688 1078.847656 C 229.304688 1068.5625 237.691406 1060.214844 248.066406 1060.214844 L 1018.992188 1060.214844 C 1057.648438 1060.214844 1088.992188 1029.058594 1088.992188 990.675781 L 1088.992188 984.429688 C 1072.597656 963.855469 1063.0625 939.203125 1063.0625 912.679688 L 1063.0625 912.554688 L 523.734375 912.554688 L 523.734375 912.679688 C 523.734375 984.613281 453.5625 1042.929688 367.027344 1042.929688 L 156.78125 1042.929688 C 70.242188 1042.929688 0.0703125 1101.234375 0.0703125 1173.179688 C 0.0703125 1209.136719 17.625 1241.683594 45.980469 1265.246094 C 74.351562 1288.835938 113.515625 1303.398438 156.792969 1303.398438 L 1260.398438 1303.398438 C 1346.9375 1303.398438 1417.109375 1245.097656 1417.109375 1173.195312 C 1417.109375 1137.21875 1399.550781 1104.660156 1371.195312 1081.097656 Z M 1060.328125 875.289062 L 1069.59375 875.289062 C 1069.75 874.824219 1069.917969 874.382812 1070.089844 873.917969 C 1066.984375 874.808594 1063.714844 875.289062 1060.3125 875.289062 Z M 156.78125 1.066406 C 70.242188 1.066406 0.0703125 59.367188 0.0703125 131.285156 C 0.0703125 167.246094 17.625 199.789062 45.980469 223.367188 C 74.351562 246.941406 113.515625 261.519531 156.792969 261.519531 L 167.308594 261.519531 C 210.585938 261.519531 249.765625 276.113281 278.121094 299.675781 C 306.503906 323.253906 324.03125 355.796875 324.03125 391.769531 C 324.03125 410.882812 319.074219 429.046875 310.175781 445.398438 L 505.996094 426.566406 C 499.007812 404.011719 495.578125 360.953125 550.714844 325.503906 C 629.347656 274.964844 542.609375 140.566406 676.746094 110.714844 C 735.824219 97.566406 759.019531 48.953125 783.167969 1.078125 L 156.78125 1.078125 Z M 483.238281 321.679688 C 451.324219 321.679688 425.4375 288.058594 425.4375 246.585938 C 425.4375 205.117188 451.324219 171.507812 483.238281 171.507812 C 515.148438 171.507812 541.050781 205.132812 541.050781 246.585938 C 541.050781 288.042969 515.164062 321.679688 483.238281 321.679688 Z M 551.46875 171.507812 C 537.621094 171.507812 526.414062 155.429688 526.414062 135.578125 C 526.414062 115.730469 537.636719 99.648438 551.46875 99.648438 C 565.296875 99.648438 576.519531 115.730469 576.519531 135.578125 C 576.519531 155.429688 565.296875 171.507812 551.46875 171.507812 Z M 198.722656 519.339844 C 188.578125 521.082031 178.0625 521.976562 167.292969 521.976562 L 156.78125 521.976562 C 70.242188 521.976562 0.0703125 580.277344 0.0703125 652.226562 C 0.0703125 688.183594 17.625 720.757812 45.980469 744.320312 C 74.351562 767.894531 113.515625 782.472656 156.792969 782.472656 L 247.230469 782.472656 L 198.738281 519.339844 Z M 198.722656 519.339844 " fill-opacity="1" fill-rule="nonzero"/></g><path fill="#b1bec6" d="M 293.46875 875.277344 L 266.726562 875.277344 C 268.273438 872.667969 269.988281 870.175781 271.800781 867.769531 C 277.792969 872.484375 285.363281 875.277344 293.480469 875.277344 Z M 293.46875 875.277344 " fill-opacity="1" fill-rule="nonzero"/><path fill="#b1bec6" d="M 424.898438 919.027344 C 424.898438 966.054688 386.777344 1004.164062 339.746094 1004.164062 C 292.714844 1004.164062 254.613281 966.054688 254.613281 919.027344 C 254.613281 916.847656 254.695312 914.691406 254.851562 912.554688 L 424.65625 912.554688 C 424.8125 914.691406 424.898438 916.847656 424.898438 919.027344 Z M 424.898438 919.027344 " fill-opacity="1" fill-rule="nonzero"/></g></g></g></g><path fill="#b1bec6" d="M 1092.832031 505.367188 C 1087.292969 491.457031 1072.964844 482.046875 1056.96875 483.59375 L 1047.574219 484.484375 L 1046.609375 484.570312 L 800.46875 508.230469 L 505.964844 536.539062 L 225.125 563.53125 C 204.746094 565.5 190.433594 584.34375 194.117188 604.335938 L 259.089844 956.8125 C 262.136719 973.304688 276.605469 985.277344 293.46875 985.277344 L 1060.328125 985.277344 C 1079.625 985.277344 1095.269531 969.734375 1095.269531 950.566406 L 1095.269531 518.121094 C 1095.269531 513.601562 1094.40625 509.308594 1092.820312 505.355469 Z M 341.53125 659.886719 L 965.878906 611.6875 C 973.335938 611.121094 979.894531 616.660156 980.476562 624.097656 C 981.042969 631.523438 975.460938 638.011719 967.976562 638.59375 L 343.644531 686.78125 C 343.277344 686.808594 342.921875 686.820312 342.566406 686.820312 C 335.554688 686.820312 329.585938 681.453125 329.046875 674.382812 C 328.453125 666.945312 334.066406 660.453125 341.53125 659.886719 Z M 342.214844 757.296875 L 966.5625 740.152344 C 974.042969 739.894531 980.292969 745.820312 980.503906 753.269531 C 980.71875 760.722656 974.792969 766.929688 967.296875 767.140625 L 342.964844 784.269531 C 342.824219 784.285156 342.710938 784.285156 342.566406 784.285156 C 335.242188 784.285156 329.203125 778.476562 328.992188 771.152344 C 328.792969 763.714844 334.703125 757.507812 342.199219 757.296875 Z M 966.945312 891.851562 L 342.582031 891.851562 C 335.085938 891.851562 328.992188 885.800781 328.992188 878.347656 C 328.992188 870.894531 335.070312 864.847656 342.582031 864.847656 L 966.929688 864.847656 C 974.425781 864.847656 980.519531 870.894531 980.519531 878.347656 C 980.519531 885.800781 974.441406 891.851562 966.929688 891.851562 Z M 966.945312 891.851562 " fill-opacity="0.5" fill-rule="nonzero"/><path fill="#b1bec6" d="M 1060.328125 989.527344 L 293.46875 989.527344 C 274.550781 989.527344 258.339844 976.097656 254.921875 957.605469 L 189.953125 605.113281 C 187.984375 594.457031 190.605469 583.394531 197.152344 574.722656 C 203.738281 565.980469 213.800781 560.371094 224.742188 559.308594 L 1056.585938 479.355469 C 1073.84375 477.683594 1090.394531 487.714844 1096.800781 503.769531 C 1098.628906 508.300781 1099.550781 513.132812 1099.550781 518.105469 L 1099.550781 950.550781 C 1099.550781 972.03125 1081.964844 989.5 1060.355469 989.5 Z M 1060.328125 487.6875 C 1059.347656 487.6875 1058.371094 487.730469 1057.378906 487.828125 L 1046.992188 488.820312 L 225.535156 567.78125 C 216.960938 568.601562 209.082031 573.007812 203.925781 579.851562 C 198.738281 586.722656 196.753906 595.152344 198.296875 603.582031 L 263.269531 956.0625 C 265.949219 970.527344 278.644531 981.027344 293.453125 981.027344 L 1060.328125 981.027344 C 1077.261719 981.027344 1091.019531 967.367188 1091.019531 950.578125 L 1091.019531 518.132812 C 1091.019531 514.253906 1090.296875 510.484375 1088.878906 506.957031 C 1084.230469 495.296875 1072.753906 487.699219 1060.328125 487.699219 Z M 1060.328125 487.6875 " fill-opacity="1" fill-rule="nonzero"/><path fill="#b1bec6" d="M 384.199219 1170.214844 L 392.035156 1207.476562 L 248.050781 1207.476562 C 242.878906 1207.476562 238.175781 1205.394531 234.789062 1202.023438 C 231.402344 1198.652344 229.289062 1194.003906 229.289062 1188.847656 C 229.289062 1178.5625 237.679688 1170.214844 248.050781 1170.214844 Z M 384.199219 1170.214844 " fill-opacity="0.5" fill-rule="nonzero"/><path fill="#b1bec6" d="M 847.386719 1170.214844 L 855.222656 1207.492188 L 479.015625 1207.492188 L 482.867188 1170.214844 Z M 847.386719 1170.214844 " fill-opacity="0.5" fill-rule="nonzero"/><path fill="#b1bec6" d="M 1126.488281 1005.011719 L 1126.488281 1105.652344 C 1126.488281 1161.871094 1080.574219 1207.476562 1023.980469 1207.476562 L 942.1875 1207.476562 L 946.042969 1170.214844 L 1018.949219 1170.214844 C 1057.605469 1170.214844 1088.949219 1139.058594 1088.949219 1100.675781 L 1088.949219 1037.304688 C 1088.949219 1029.15625 1082.320312 1022.554688 1074.113281 1022.554688 L 248.050781 1022.554688 C 237.578125 1022.554688 229.089844 1014.023438 229.289062 1003.566406 C 229.472656 993.308594 238.328125 985.289062 248.675781 985.289062 L 1106.636719 985.289062 C 1117.589844 985.289062 1126.488281 994.132812 1126.488281 1005.011719 Z M 1126.488281 1005.011719 " fill-opacity="0.5" fill-rule="nonzero"/><path fill="#b1bec6" d="M 397.277344 1211.730469 L 248.050781 1211.730469 C 241.902344 1211.730469 236.132812 1209.347656 231.785156 1205.042969 C 227.433594 1200.71875 225.039062 1194.96875 225.039062 1188.847656 C 225.039062 1176.238281 235.367188 1165.964844 248.050781 1165.964844 L 387.65625 1165.964844 Z M 248.050781 1174.464844 C 240.042969 1174.464844 233.539062 1180.914062 233.539062 1188.847656 C 233.539062 1192.6875 235.042969 1196.300781 237.777344 1199.019531 C 240.511719 1201.738281 244.167969 1203.242188 248.050781 1203.242188 L 386.808594 1203.242188 L 380.757812 1174.480469 L 248.050781 1174.480469 Z M 248.050781 1174.464844 " fill-opacity="1" fill-rule="nonzero"/><path fill="#b1bec6" d="M 860.46875 1211.742188 L 474.296875 1211.742188 L 479.042969 1165.980469 L 850.84375 1165.980469 Z M 483.734375 1203.242188 L 849.996094 1203.242188 L 843.945312 1174.480469 L 486.707031 1174.480469 Z M 483.734375 1203.242188 " fill-opacity="1" fill-rule="nonzero"/><path fill="#b1bec6" d="M 1023.992188 1211.742188 L 937.496094 1211.742188 L 942.246094 1165.980469 L 1018.992188 1165.980469 C 1055.238281 1165.980469 1084.742188 1136.691406 1084.742188 1100.691406 L 1084.742188 1037.316406 C 1084.742188 1031.523438 1079.996094 1026.816406 1074.15625 1026.816406 L 248.050781 1026.816406 C 241.800781 1026.816406 235.949219 1024.367188 231.585938 1019.917969 C 227.25 1015.511719 224.925781 1009.675781 225.039062 1003.496094 C 225.265625 991.113281 235.863281 981.039062 248.675781 981.039062 L 1106.636719 981.039062 C 1119.925781 981.039062 1130.738281 991.792969 1130.738281 1005.011719 L 1130.738281 1105.652344 C 1130.738281 1164.152344 1082.84375 1211.730469 1023.980469 1211.730469 Z M 946.921875 1203.242188 L 1023.992188 1203.242188 C 1078.167969 1203.242188 1122.25 1159.460938 1122.25 1105.664062 L 1122.25 1005.027344 C 1122.25 996.5 1115.25 989.554688 1106.648438 989.554688 L 248.675781 989.554688 C 240.46875 989.554688 233.683594 995.890625 233.539062 1003.667969 C 233.46875 1007.535156 234.929688 1011.203125 237.648438 1013.96875 C 240.414062 1016.773438 244.097656 1018.316406 248.050781 1018.316406 L 1074.128906 1018.316406 C 1084.65625 1018.316406 1093.214844 1026.847656 1093.214844 1037.316406 L 1093.214844 1100.691406 C 1093.214844 1141.382812 1059.902344 1174.480469 1018.964844 1174.480469 L 949.882812 1174.480469 L 946.90625 1203.242188 Z M 946.921875 1203.242188 " fill-opacity="1" fill-rule="nonzero"/><path fill="#b1bec6" d="M 524.984375 1303.441406 C 524.984375 1351.171875 486.015625 1389.851562 437.976562 1389.851562 C 389.9375 1389.851562 350.984375 1351.171875 350.984375 1303.441406 C 350.984375 1270.738281 369.292969 1242.261719 396.257812 1227.570312 L 405.824219 1272.976562 C 398.199219 1280.898438 393.523438 1291.636719 393.523438 1303.441406 C 393.523438 1327.78125 413.476562 1347.601562 437.992188 1347.601562 C 462.503906 1347.601562 482.472656 1327.78125 482.472656 1303.441406 C 482.472656 1292.617188 478.546875 1282.699219 472.015625 1275.03125 L 477.085938 1226.195312 C 505.527344 1240.40625 525.011719 1269.664062 525.011719 1303.441406 Z M 524.984375 1303.441406 " fill-opacity="1" fill-rule="nonzero"/><path fill="#b1bec6" d="M 482.457031 1303.441406 C 482.457031 1327.78125 462.519531 1347.601562 437.976562 1347.601562 C 413.433594 1347.601562 393.507812 1327.78125 393.507812 1303.441406 C 393.507812 1291.636719 398.199219 1280.898438 405.808594 1272.976562 L 411.449219 1299.785156 C 412.410156 1304.359375 416.492188 1307.660156 421.226562 1307.660156 L 459.597656 1307.660156 C 464.714844 1307.660156 468.996094 1303.835938 469.519531 1298.75 L 471.984375 1275.019531 C 478.515625 1282.683594 482.441406 1292.617188 482.441406 1303.425781 Z M 482.457031 1303.441406 " fill-opacity="0.5" fill-rule="nonzero"/><path fill="#b1bec6" d="M 482.882812 1170.214844 L 479.015625 1207.476562 L 477.074219 1226.195312 L 472 1275.019531 L 469.535156 1298.75 C 469.011719 1303.824219 464.714844 1307.660156 459.601562 1307.660156 L 421.226562 1307.660156 C 416.507812 1307.660156 412.414062 1304.359375 411.449219 1299.769531 L 405.824219 1272.976562 L 396.273438 1227.570312 L 392.050781 1207.476562 L 384.214844 1170.214844 Z M 482.882812 1170.214844 " fill-opacity="0.75" fill-rule="nonzero"/><path fill="#b1bec6" d="M 988.183594 1303.441406 C 988.183594 1351.171875 949.214844 1389.851562 901.179688 1389.851562 C 853.140625 1389.851562 814.1875 1351.171875 814.1875 1303.441406 C 814.1875 1270.738281 832.496094 1242.261719 859.460938 1227.570312 L 869.011719 1272.976562 C 861.386719 1280.898438 856.726562 1291.636719 856.726562 1303.441406 C 856.726562 1327.78125 876.679688 1347.601562 901.191406 1347.601562 C 925.707031 1347.601562 945.671875 1327.78125 945.671875 1303.441406 C 945.671875 1292.617188 941.75 1282.699219 935.214844 1275.03125 L 940.289062 1226.195312 C 968.699219 1240.40625 988.214844 1269.664062 988.214844 1303.441406 Z M 988.183594 1303.441406 " fill-opacity="1" fill-rule="nonzero"/><path fill="#b1bec6" d="M 945.644531 1303.441406 C 945.644531 1327.78125 925.691406 1347.601562 901.164062 1347.601562 C 876.636719 1347.601562 856.699219 1327.78125 856.699219 1303.441406 C 856.699219 1291.636719 861.375 1280.898438 868.984375 1272.976562 L 874.625 1299.785156 C 875.585938 1304.359375 879.695312 1307.660156 884.414062 1307.660156 L 922.773438 1307.660156 C 927.890625 1307.660156 932.183594 1303.835938 932.722656 1298.75 L 935.1875 1275.019531 C 941.71875 1282.683594 945.644531 1292.617188 945.644531 1303.425781 Z M 945.644531 1303.441406 " fill-opacity="0.5" fill-rule="nonzero"/><path fill="#b1bec6" d="M 946.054688 1170.214844 L 942.203125 1207.476562 L 940.261719 1226.195312 L 935.1875 1275.03125 L 932.722656 1298.765625 C 932.183594 1303.851562 927.890625 1307.675781 922.773438 1307.675781 L 884.414062 1307.675781 C 879.695312 1307.675781 875.585938 1304.390625 874.625 1299.796875 L 868.984375 1272.992188 L 859.433594 1227.582031 L 855.210938 1207.492188 L 847.375 1170.230469 L 946.054688 1170.230469 Z M 946.054688 1170.214844 " fill-opacity="0.75" fill-rule="nonzero"/><path fill="#b1bec6" d="M 459.601562 1311.925781 L 421.226562 1311.925781 C 414.523438 1311.925781 408.65625 1307.195312 407.285156 1300.664062 L 378.957031 1165.980469 L 487.585938 1165.980469 L 473.757812 1299.21875 C 473.003906 1306.472656 466.914062 1311.941406 459.601562 1311.941406 Z M 389.441406 1174.480469 L 415.617188 1298.921875 C 416.167969 1301.527344 418.535156 1303.425781 421.242188 1303.425781 L 459.613281 1303.425781 C 462.5625 1303.425781 465.015625 1301.230469 465.324219 1298.324219 L 478.179688 1174.464844 L 389.457031 1174.464844 Z M 389.441406 1174.480469 " fill-opacity="1" fill-rule="nonzero"/><path fill="#b1bec6" d="M 922.773438 1311.914062 L 884.414062 1311.914062 C 877.710938 1311.914062 871.832031 1307.179688 870.472656 1300.664062 L 842.144531 1165.964844 L 950.773438 1165.964844 L 936.945312 1299.1875 C 936.179688 1306.445312 930.085938 1311.914062 922.773438 1311.914062 Z M 852.617188 1174.464844 L 878.789062 1298.921875 C 879.34375 1301.527344 881.707031 1303.410156 884.414062 1303.410156 L 922.773438 1303.410156 C 925.722656 1303.410156 928.1875 1301.214844 928.484375 1298.3125 L 941.335938 1174.464844 Z M 852.617188 1174.464844 " fill-opacity="1" fill-rule="nonzero"/><path fill="#b1bec6" d="M 967.976562 638.605469 L 343.644531 686.792969 C 343.273438 686.820312 342.921875 686.835938 342.566406 686.835938 C 335.550781 686.835938 329.585938 681.464844 329.046875 674.394531 C 328.453125 666.957031 334.0625 660.46875 341.53125 659.902344 L 965.878906 611.703125 C 973.332031 611.136719 979.894531 616.675781 980.476562 624.113281 C 981.042969 631.539062 975.457031 638.027344 967.976562 638.605469 Z M 967.976562 638.605469 " fill-opacity="1" fill-rule="nonzero"/><path fill="#b1bec6" d="M 980.503906 753.269531 C 980.71875 760.722656 974.792969 766.929688 967.296875 767.140625 L 342.964844 784.269531 C 342.824219 784.285156 342.710938 784.285156 342.566406 784.285156 C 335.242188 784.285156 329.203125 778.476562 328.992188 771.152344 C 328.792969 763.714844 334.703125 757.507812 342.199219 757.296875 L 966.546875 740.152344 C 974.027344 739.894531 980.277344 745.820312 980.492188 753.269531 Z M 980.503906 753.269531 " fill-opacity="1" fill-rule="nonzero"/><path fill="#b1bec6" d="M 980.519531 878.363281 C 980.519531 885.816406 974.441406 891.867188 966.929688 891.867188 L 342.582031 891.867188 C 335.085938 891.867188 328.992188 885.816406 328.992188 878.363281 C 328.992188 870.910156 335.070312 864.859375 342.582031 864.859375 L 966.929688 864.859375 C 974.425781 864.859375 980.519531 870.910156 980.519531 878.363281 Z M 980.519531 878.363281 " fill-opacity="1" fill-rule="nonzero"/><path fill="#b1bec6" d="M 1282.589844 356.375 C 1282.589844 369.636719 1271.761719 380.363281 1258.441406 380.363281 L 1147.21875 380.363281 C 1129.082031 380.363281 1113.535156 393.226562 1110.261719 410.949219 L 1092.832031 505.367188 C 1087.292969 491.457031 1072.964844 482.046875 1056.96875 483.59375 L 1047.574219 484.484375 L 1062.761719 402.28125 C 1070.230469 361.773438 1105.769531 332.375 1147.21875 332.375 L 1258.441406 332.375 C 1271.777344 332.375 1282.589844 343.113281 1282.589844 356.359375 Z M 1282.589844 356.375 " fill-opacity="0.5" fill-rule="nonzero"/><path fill="#b1bec6" d="M 1094.335938 520.640625 L 1088.878906 506.941406 C 1083.878906 494.375 1070.910156 486.511719 1057.378906 487.828125 L 1042.371094 489.257812 L 1058.582031 401.515625 C 1066.433594 358.996094 1103.703125 328.125 1147.21875 328.125 L 1258.441406 328.125 C 1274.101562 328.125 1286.839844 340.789062 1286.839844 356.359375 C 1286.839844 371.933594 1274.101562 384.597656 1258.441406 384.597656 L 1147.21875 384.597656 C 1131.136719 384.597656 1117.347656 396.003906 1114.441406 411.714844 L 1094.335938 520.628906 Z M 1060.3125 479.1875 C 1072.160156 479.1875 1083.339844 484.597656 1090.707031 493.523438 L 1106.097656 410.1875 C 1109.738281 390.449219 1127.039062 376.113281 1147.234375 376.113281 L 1258.457031 376.113281 C 1269.425781 376.113281 1278.351562 367.257812 1278.351562 356.375 C 1278.351562 345.492188 1269.425781 336.636719 1258.457031 336.636719 L 1147.234375 336.636719 C 1107.824219 336.636719 1074.058594 364.578125 1066.957031 403.074219 L 1052.800781 479.738281 L 1056.585938 479.371094 C 1057.832031 479.242188 1059.09375 479.1875 1060.328125 479.1875 Z M 1060.3125 479.1875 " fill-opacity="1" fill-rule="nonzero"/><path fill="#b1bec6" d="M 250.089844 615.894531 C 247.921875 615.894531 246.082031 614.25 245.867188 612.054688 C 245.640625 609.71875 247.355469 607.636719 249.695312 607.421875 L 729.519531 561.0625 C 731.855469 560.835938 733.941406 562.550781 734.167969 564.890625 C 734.394531 567.226562 732.679688 569.308594 730.339844 569.523438 L 250.515625 615.882812 C 250.375 615.882812 250.234375 615.894531 250.105469 615.894531 Z M 250.089844 615.894531 " fill-opacity="1" fill-rule="nonzero"/><path fill="#b1bec6" d="M 779.625 562.652344 C 777.511719 562.652344 775.683594 561.09375 775.417969 558.9375 C 775.117188 556.617188 776.761719 554.476562 779.085938 554.179688 L 877.359375 541.539062 C 879.683594 541.242188 881.820312 542.886719 882.121094 545.210938 C 882.417969 547.535156 880.773438 549.671875 878.449219 549.96875 L 780.175781 562.609375 C 779.992188 562.636719 779.808594 562.636719 779.625 562.636719 Z M 779.625 562.652344 " fill-opacity="1" fill-rule="nonzero"/><path fill="#b1bec6" d="M 929.929688 961.203125 L 283.617188 961.203125 C 281.265625 961.203125 279.367188 959.304688 279.367188 956.953125 C 279.367188 954.601562 281.265625 952.703125 283.617188 952.703125 L 929.929688 952.703125 C 932.28125 952.703125 934.179688 954.601562 934.179688 956.953125 C 934.179688 959.304688 932.28125 961.203125 929.929688 961.203125 Z M 929.929688 961.203125 " fill-opacity="1" fill-rule="nonzero"/><path fill="#b1bec6" d="M 973.871094 334.414062 C 870.96875 384.953125 806.222656 333.265625 822.40625 437.800781 C 826.089844 461.617188 817.359375 486.015625 800.46875 508.246094 L 505.964844 536.554688 C 498.996094 513.984375 495.566406 470.925781 550.6875 435.476562 C 629.320312 384.9375 542.597656 250.550781 676.71875 220.683594 C 810.84375 190.820312 759.96875 -21.675781 955.367188 5.894531 C 1150.746094 33.453125 1076.765625 283.863281 973.859375 334.386719 Z M 973.871094 334.414062 " fill-opacity="0.25" fill-rule="nonzero"/><path fill="#b1bec6" d="M 502.933594 541.117188 L 501.914062 537.8125 C 494.601562 514.140625 490.902344 468.886719 548.40625 431.90625 C 580.375 411.363281 583.535156 376.054688 586.863281 338.679688 C 589.117188 313.472656 591.441406 287.417969 603.117188 265.472656 C 616.410156 240.476562 640.1875 224.480469 675.8125 216.546875 C 731.515625 204.136719 753.90625 159.664062 777.625 112.566406 C 809.070312 50.128906 841.59375 -14.4375 955.988281 1.699219 C 992.917969 6.914062 1022.433594 20.230469 1043.734375 41.285156 C 1062.792969 60.144531 1074.851562 84.628906 1079.542969 114.070312 C 1085.945312 154.164062 1077.726562 202.324219 1057.011719 246.1875 C 1036.632812 289.332031 1007.015625 322.882812 975.773438 338.226562 C 937.667969 356.941406 905.289062 361.773438 879.285156 365.640625 C 855.976562 369.113281 839.140625 371.632812 830.878906 382.855469 C 823.75 392.53125 822.40625 409.773438 826.640625 437.132812 C 830.3125 460.894531 822.449219 486.367188 803.898438 510.808594 L 802.777344 512.296875 L 502.976562 541.117188 Z M 922.191406 7.679688 C 839.949219 7.679688 813.265625 60.65625 785.207031 116.390625 C 761.644531 163.175781 737.285156 211.5625 677.65625 224.851562 C 604.082031 241.230469 599.832031 288.933594 595.324219 339.429688 C 591.953125 377.203125 588.464844 416.265625 552.996094 439.0625 C 502.835938 471.320312 503.246094 509.886719 509.082031 531.992188 L 798.203125 504.191406 C 814.539062 482.105469 821.457031 459.40625 818.210938 438.4375 C 813.546875 408.289062 815.335938 389.585938 824.007812 377.8125 C 834.363281 363.742188 852.671875 361.007812 878.011719 357.238281 C 903.445312 353.441406 935.089844 348.722656 972.003906 330.589844 C 1001.5625 316.082031 1029.730469 283.988281 1049.300781 242.546875 C 1069.308594 200.199219 1077.261719 153.851562 1071.125 115.402344 C 1064.507812 73.929688 1038.941406 21.988281 954.785156 10.117188 C 943.039062 8.457031 932.199219 7.679688 922.191406 7.679688 Z M 922.191406 7.679688 " fill-opacity="1" fill-rule="nonzero"/><path fill="#b1bec6" d="M 897.519531 122.1875 C 902.726562 112.449219 901.425781 101.605469 894.613281 97.960938 C 887.804688 94.320312 878.058594 99.257812 872.851562 108.996094 C 867.644531 118.730469 868.945312 129.578125 875.753906 133.21875 C 882.566406 136.859375 892.308594 131.921875 897.519531 122.1875 Z M 897.519531 122.1875 " fill-opacity="1" fill-rule="nonzero"/><path fill="#b1bec6" d="M 990.21875 170.527344 C 995.425781 160.789062 994.125 149.945312 987.3125 146.304688 C 980.503906 142.660156 970.757812 147.597656 965.550781 157.335938 C 960.34375 167.070312 961.640625 177.917969 968.453125 181.558594 C 975.265625 185.203125 985.007812 180.261719 990.21875 170.527344 Z M 990.21875 170.527344 " fill-opacity="1" fill-rule="nonzero"/><path fill="#b1bec6" d="M 850.277344 210.386719 C 853.496094 207.992188 856.953125 205.921875 860.59375 204.25 C 860.933594 204.09375 862.335938 203.824219 861.089844 204.023438 C 859.84375 204.222656 861.289062 203.953125 861.601562 203.824219 C 862.449219 203.5 863.316406 203.1875 864.179688 202.890625 C 866.078125 202.253906 868.019531 201.699219 869.976562 201.261719 C 870.953125 201.035156 871.945312 200.835938 872.921875 200.664062 C 873.375 200.59375 873.828125 200.523438 874.269531 200.453125 C 876.210938 200.140625 872.226562 200.652344 874.183594 200.480469 C 876.140625 200.3125 878.164062 200.140625 880.179688 200.128906 C 881.992188 200.128906 883.804688 200.199219 885.621094 200.367188 C 886.085938 200.410156 886.765625 200.609375 887.234375 200.539062 C 885.816406 200.734375 885.746094 200.3125 886.582031 200.46875 C 887.660156 200.652344 888.722656 200.835938 889.785156 201.0625 C 891.726562 201.488281 893.652344 202.027344 895.523438 202.691406 C 896.019531 202.863281 897.664062 203.8125 898.0625 203.65625 C 897.609375 203.824219 896.460938 202.933594 897.535156 203.441406 C 898.1875 203.753906 898.839844 204.050781 899.476562 204.378906 C 900.996094 205.144531 902.453125 206.007812 903.871094 206.941406 C 904.578125 207.410156 905.257812 207.90625 905.953125 208.402344 C 907.457031 209.464844 904.4375 207.125 905.839844 208.316406 C 906.222656 208.640625 906.621094 208.96875 907.015625 209.292969 C 908.433594 210.511719 909.765625 211.816406 911.042969 213.191406 C 911.621094 213.8125 912.175781 214.453125 912.714844 215.101562 C 912.925781 215.359375 913.136719 215.628906 913.351562 215.894531 C 913.902344 216.605469 913.777344 216.433594 912.953125 215.386719 C 913.152344 215.65625 913.351562 215.925781 913.550781 216.207031 C 914.542969 217.582031 915.449219 219.011719 916.296875 220.488281 C 917.21875 222.074219 917.828125 223.929688 918.792969 225.472656 C 917.601562 223.617188 918.425781 224.609375 918.707031 225.316406 C 918.890625 225.785156 919.0625 226.265625 919.230469 226.734375 C 919.558594 227.683594 919.871094 228.648438 920.136719 229.625 C 920.40625 230.601562 920.648438 231.566406 920.847656 232.558594 C 920.945312 233.054688 921.046875 233.550781 921.128906 234.046875 C 921.1875 234.371094 921.242188 234.710938 921.285156 235.039062 L 921.117188 233.777344 C 921.1875 235.875 921.5 237.929688 921.457031 240.039062 C 921.441406 241.046875 921.386719 242.050781 921.285156 243.058594 C 921.242188 243.46875 921.160156 243.894531 921.144531 244.304688 C 921.1875 241.640625 921.1875 243.820312 921.058594 244.542969 C 920.25 248.910156 922.25 253.925781 926.996094 255 C 931.164062 255.949219 936.589844 253.738281 937.453125 249.0625 C 940.757812 231.085938 934.519531 212.625 921.625 199.730469 C 915.050781 193.15625 906.859375 188.324219 897.960938 185.660156 C 889.0625 182.996094 879.15625 182.6875 869.71875 184.089844 C 859.703125 185.578125 849.78125 189.683594 841.664062 195.734375 C 839.820312 197.109375 838.390625 198.511719 837.75 200.820312 C 837.183594 202.863281 837.441406 205.566406 838.601562 207.367188 C 840.871094 210.878906 846.425781 213.261719 850.234375 210.414062 Z M 850.277344 210.386719 " fill-opacity="1" fill-rule="nonzero"/><path fill="#b1bec6" d="M 560.054688 479.113281 C 558.949219 479.113281 557.902344 478.464844 557.445312 477.386719 C 556.839844 475.941406 557.503906 474.285156 558.949219 473.675781 C 569.195312 469.308594 579.101562 463.996094 588.382812 457.890625 C 594.164062 454.078125 601.460938 448.835938 606.5625 441.964844 C 612.925781 433.394531 616.410156 421.777344 616.921875 407.410156 C 617.203125 399.332031 616.59375 391.058594 616.011719 383.066406 C 615.6875 378.589844 615.347656 373.957031 615.148438 369.367188 C 614.808594 361.023438 614.949219 351.289062 618.550781 342.503906 C 623.425781 330.589844 634.109375 321.859375 642.683594 314.847656 C 643.886719 313.855469 645.671875 314.039062 646.664062 315.246094 C 647.65625 316.449219 647.472656 318.234375 646.265625 319.226562 C 637.765625 326.167969 628.128906 334.046875 623.792969 344.644531 C 620.605469 352.4375 620.492188 361.390625 620.804688 369.125 C 620.988281 373.617188 621.328125 378.195312 621.652344 382.628906 C 622.25 390.789062 622.871094 399.21875 622.574219 407.59375 C 622.023438 423.121094 618.152344 435.816406 611.097656 445.324219 C 605.472656 452.902344 597.664062 458.542969 591.484375 462.609375 C 581.90625 468.914062 571.703125 474.382812 561.144531 478.875 C 560.777344 479.03125 560.410156 479.101562 560.039062 479.101562 Z M 560.054688 479.113281 " fill-opacity="1" fill-rule="nonzero"/><path fill="#b1bec6" d="M 640.597656 369.453125 C 640.257812 369.453125 639.917969 369.394531 639.59375 369.269531 C 638.132812 368.714844 637.398438 367.070312 637.949219 365.613281 C 644.070312 349.503906 655.066406 334.925781 668.910156 324.554688 C 670.160156 323.617188 671.945312 323.871094 672.878906 325.121094 C 673.816406 326.367188 673.558594 328.152344 672.3125 329.085938 C 659.316406 338.804688 649.003906 352.492188 643.25 367.609375 C 642.824219 368.742188 641.746094 369.4375 640.597656 369.4375 Z M 640.597656 369.453125 " fill-opacity="1" fill-rule="nonzero"/><path fill="#b1bec6" d="M 747.953125 242.886719 C 746.976562 242.886719 746.011719 242.375 745.488281 241.457031 C 739.992188 231.835938 736.417969 220.953125 735.144531 209.960938 C 734.960938 208.402344 736.078125 207 737.636719 206.816406 C 739.183594 206.644531 740.601562 207.75 740.785156 209.308594 C 741.960938 219.539062 745.289062 229.683594 750.40625 238.636719 C 751.183594 239.996094 750.703125 241.726562 749.355469 242.503906 C 748.917969 242.757812 748.4375 242.871094 747.953125 242.871094 Z M 747.953125 242.886719 " fill-opacity="1" fill-rule="nonzero"/><path fill="#b1bec6" d="M 780.871094 284.34375 C 780.09375 284.34375 779.3125 284.015625 778.746094 283.394531 C 772.808594 276.722656 767.011719 269.765625 761.515625 262.695312 C 760.550781 261.460938 760.777344 259.675781 762.011719 258.714844 C 763.242188 257.75 765.03125 257.976562 765.992188 259.207031 C 771.421875 266.179688 777.132812 273.050781 782.984375 279.625 C 784.019531 280.800781 783.917969 282.585938 782.742188 283.621094 C 782.203125 284.101562 781.523438 284.34375 780.859375 284.34375 Z M 780.871094 284.34375 " fill-opacity="1" fill-rule="nonzero"/><path fill="#b1bec6" d="M 790.335938 442.148438 L 790.308594 442.148438 C 788.75 442.148438 787.488281 440.859375 787.503906 439.289062 C 787.746094 406.8125 799.050781 374.894531 819.316406 349.402344 C 820.292969 348.1875 822.078125 347.972656 823.296875 348.949219 C 824.515625 349.929688 824.730469 351.714844 823.75 352.933594 C 804.265625 377.429688 793.414062 408.117188 793.171875 439.332031 C 793.171875 440.890625 791.894531 442.136719 790.335938 442.136719 Z M 790.335938 442.148438 " fill-opacity="1" fill-rule="nonzero"/><path fill="#b1bec6" d="M 483.25 431.664062 C 515.179688 431.664062 541.066406 398.050781 541.066406 356.585938 C 541.066406 315.121094 515.179688 281.507812 483.25 281.507812 C 451.320312 281.507812 425.4375 315.121094 425.4375 356.585938 C 425.4375 398.050781 451.320312 431.664062 483.25 431.664062 Z M 483.25 431.664062 " fill-opacity="0.5" fill-rule="nonzero"/><path fill="#b1bec6" d="M 551.464844 281.507812 C 565.304688 281.507812 576.519531 265.421875 576.519531 245.578125 C 576.519531 225.734375 565.304688 209.648438 551.464844 209.648438 C 537.628906 209.648438 526.414062 225.734375 526.414062 245.578125 C 526.414062 265.421875 537.628906 281.507812 551.464844 281.507812 Z M 551.464844 281.507812 " fill-opacity="0.5" fill-rule="nonzero"/><path fill="#b1bec6" d="M 885.136719 449.121094 C 901.957031 449.121094 915.589844 435.578125 915.589844 418.871094 C 915.589844 402.164062 901.957031 388.621094 885.136719 388.621094 C 868.320312 388.621094 854.683594 402.164062 854.683594 418.871094 C 854.683594 435.578125 868.320312 449.121094 885.136719 449.121094 Z M 885.136719 449.121094 " fill-opacity="0.5" fill-rule="nonzero"/></svg>