<svg width="94" height="97" viewBox="0 0 94 97" fill="none" xmlns="http://www.w3.org/2000/svg">
<path opacity="0.797991" fill-rule="evenodd" clip-rule="evenodd" d="M61.9378 91.6264H61.9259C61.4185 91.6264 60.9736 91.8277 60.6031 92.1168C60.5316 92.1735 60.4424 92.2063 60.3784 92.2703C60.0228 92.6281 59.8174 93.117 59.7728 93.6506C59.7683 93.7102 59.7385 93.7623 59.7385 93.8235C59.7385 94.0947 59.8025 94.3481 59.8933 94.5866C59.9231 94.6641 59.9603 94.7312 59.9975 94.8042C60.0778 94.9607 60.1745 95.1053 60.2906 95.2379C60.3471 95.3035 60.3977 95.3706 60.4617 95.4287C60.6373 95.5882 60.8307 95.7283 61.0509 95.8252H61.0524C61.3247 95.9459 61.6223 96.019 61.9378 96.019C62.9154 96.019 63.7144 95.3691 63.9986 94.4823C64.0745 94.2795 64.1266 94.0679 64.1281 93.8354C64.1281 93.8309 64.1311 93.8279 64.1311 93.8235C64.1311 92.6087 63.149 91.6264 61.9378 91.6264ZM92.6207 65.4367C92.4079 65.3473 92.1713 65.313 91.9288 65.2966C91.8856 65.2951 91.8514 65.2713 91.8067 65.2713H91.7948C90.5836 65.2713 89.6075 66.2547 89.6075 67.469C89.6075 67.7641 89.67 68.0427 89.7757 68.296C89.85 68.4778 89.9721 68.6238 90.0866 68.7773C90.1343 68.8354 90.161 68.9069 90.2116 68.9605C90.5762 69.3479 91.0791 69.5863 91.6416 69.631C91.6446 69.631 91.6475 69.6325 91.6505 69.634V69.6325C91.7041 69.637 91.7517 69.6638 91.8067 69.6638C93.018 69.6638 94 68.6804 94 67.469C94 66.5452 93.4272 65.7615 92.6207 65.4367ZM17.1337 26.617H17.1218C15.9106 26.617 14.9345 27.6004 14.9345 28.8133C14.9345 30.0247 15.9225 31.0096 17.1337 31.0096C18.3434 31.0096 19.327 30.0247 19.327 28.8133C19.327 27.6004 18.3434 26.617 17.1337 26.617ZM17.1337 78.4489H17.1218C15.9106 78.4489 14.9345 79.4311 14.9345 80.6459C14.9345 81.8577 15.9225 82.8414 17.1337 82.8414C18.3434 82.8414 19.327 81.8577 19.327 80.6459C19.327 79.4311 18.3434 78.4489 17.1337 78.4489ZM32.0682 44.1872C33.2794 44.1872 34.2615 43.2023 34.2615 41.991C34.2615 40.7766 33.2794 39.7947 32.0682 39.7947H32.0578C30.8451 39.7947 29.869 40.7766 29.869 41.991C29.869 43.2023 30.857 44.1872 32.0682 44.1872ZM17.1337 13.4395H17.1218C15.9106 13.4395 14.9345 14.4229 14.9345 15.6358C14.9345 16.8487 15.9225 17.8321 17.1337 17.8321C18.3434 17.8321 19.327 16.8487 19.327 15.6358C19.327 14.4229 18.3434 13.4395 17.1337 13.4395ZM17.1337 52.0937H17.1218C15.9106 52.0937 14.9345 53.0771 14.9345 54.29C14.9345 55.5028 15.9225 56.4862 17.1337 56.4862C18.3434 56.4862 19.327 55.5028 19.327 54.29C19.327 53.0771 18.3434 52.0937 17.1337 52.0937ZM17.1337 65.2713H17.1218C15.9106 65.2713 14.9345 66.2547 14.9345 67.469C14.9345 68.6804 15.9225 69.6638 17.1337 69.6638C18.3434 69.6638 19.327 68.6804 19.327 67.469C19.327 66.2547 18.3434 65.2713 17.1337 65.2713ZM32.0682 17.8321C33.2794 17.8321 34.2615 16.8487 34.2615 15.6358C34.2615 14.4229 33.2794 13.4395 32.0682 13.4395H32.0578C30.8451 13.4395 29.869 14.4229 29.869 15.6358C29.869 16.8487 30.857 17.8321 32.0682 17.8321ZM32.0682 31.0096C33.2794 31.0096 34.2615 30.0247 34.2615 28.8133C34.2615 27.6004 33.2794 26.617 32.0682 26.617H32.0578C30.8451 26.617 29.869 27.6004 29.869 28.8133C29.869 30.0247 30.857 31.0096 32.0682 31.0096ZM32.0682 4.65448C33.2794 4.65448 34.2615 3.67108 34.2615 2.45822C34.2615 1.24536 33.2794 0.261963 32.0682 0.261963H32.0578C30.8451 0.261963 29.869 1.24536 29.869 2.45822C29.869 3.67108 30.857 4.65448 32.0682 4.65448ZM17.1337 39.7947H17.1218C15.9106 39.7947 14.9345 40.7766 14.9345 41.991C14.9345 43.2023 15.9225 44.1872 17.1337 44.1872C18.3434 44.1872 19.327 43.2023 19.327 41.991C19.327 40.7766 18.3434 39.7947 17.1337 39.7947ZM2.20073 52.0937H2.18733C0.976116 52.0937 0 53.0771 0 54.29C0 55.5028 0.989508 56.4862 2.20073 56.4862C3.41194 56.4862 4.39252 55.5028 4.39252 54.29C4.39252 53.0771 3.41194 52.0937 2.20073 52.0937ZM2.20073 39.7947H2.18733C0.976116 39.7947 0 40.7766 0 41.991C0 43.2023 0.989508 44.1872 2.20073 44.1872C3.41194 44.1872 4.39252 43.2023 4.39252 41.991C4.39252 40.7766 3.41194 39.7947 2.20073 39.7947ZM2.19998 65.2713H2.18659C1.91122 65.2713 1.65371 65.3339 1.41406 65.4292C1.29201 65.4754 1.19079 65.5499 1.08064 65.617C0.988355 65.6751 0.89458 65.7272 0.811225 65.8002C0.666842 65.918 0.553717 66.055 0.443569 66.207C0.42273 66.2383 0.401891 66.2666 0.381052 66.3009C0.261974 66.4856 0.174153 66.6793 0.114613 66.8969L0.113125 66.8984V66.8999C0.0625164 67.0846 0 67.2664 0 67.469C0 68.3332 0.513528 69.0648 1.2414 69.4224V69.4239H1.24289C1.53314 69.5655 1.84572 69.6593 2.18807 69.6608C2.19254 69.6608 2.19552 69.6638 2.19998 69.6638C3.41161 69.6638 4.39252 68.6804 4.39252 67.469C4.39252 67.1651 4.33149 66.876 4.21986 66.6138C3.88793 65.8256 3.10796 65.2713 2.19998 65.2713ZM76.8723 39.7947H76.8604C75.6491 39.7947 74.673 40.7766 74.673 41.991C74.673 43.2023 75.661 44.1872 76.8723 44.1872C78.0835 44.1872 79.0656 43.2023 79.0656 41.991C79.0656 40.7766 78.0835 39.7947 76.8723 39.7947ZM2.19998 26.617H2.18659C1.93652 26.617 1.7058 26.6722 1.48849 26.7586C1.29052 26.8271 1.11785 26.9299 0.951142 27.0491C0.949654 27.0491 0.949654 27.0491 0.948166 27.0506C0.387006 27.4485 0 28.0713 0 28.8133C0 28.9072 0.0416776 28.9861 0.0535855 29.0785H0.052097C0.052097 29.0815 0.0535855 29.083 0.055074 29.0845C0.123544 29.6194 0.363191 30.0917 0.745731 30.4344C0.797828 30.4821 0.863322 30.5089 0.918396 30.5506C1.06873 30.6609 1.21312 30.7756 1.39025 30.8457C1.63882 30.9485 1.90973 31.0096 2.19998 31.0096C3.10796 31.0096 3.88793 30.4568 4.21986 29.6671C4.33149 29.4048 4.39252 29.1158 4.39252 28.8133C4.39252 28.5108 4.33149 28.2218 4.21986 27.9595C3.88793 27.1698 3.10796 26.617 2.19998 26.617ZM76.8723 52.0937H76.8604C75.6491 52.0937 74.673 53.0771 74.673 54.29C74.673 55.5028 75.661 56.4862 76.8723 56.4862C78.0835 56.4862 79.0656 55.5028 79.0656 54.29C79.0656 53.0771 78.0835 52.0937 76.8723 52.0937ZM76.8723 26.617H76.8604C75.6491 26.617 74.673 27.6004 74.673 28.8133C74.673 30.0247 75.661 31.0096 76.8723 31.0096C78.0835 31.0096 79.0656 30.0247 79.0656 28.8133C79.0656 27.6004 78.0835 26.617 76.8723 26.617ZM76.8723 78.4489H76.8604C75.6491 78.4489 74.673 79.4311 74.673 80.6459C74.673 81.8577 75.661 82.8414 76.8723 82.8414C78.0835 82.8414 79.0656 81.8577 79.0656 80.6459C79.0656 79.4311 78.0835 78.4489 76.8723 78.4489ZM76.8723 65.2713H76.8604C75.6491 65.2713 74.673 66.2547 74.673 67.469C74.673 68.6804 75.661 69.6638 76.8723 69.6638C78.0835 69.6638 79.0656 68.6804 79.0656 67.469C79.0656 66.2547 78.0835 65.2713 76.8723 65.2713ZM61.9385 4.65448C63.1493 4.65448 64.1311 3.67108 64.1311 2.45822C64.1311 2.45822 64.1296 2.45673 64.1296 2.45524C64.1296 2.09913 64.0255 1.7758 63.8737 1.4778C63.8589 1.44949 63.8395 1.42863 63.8232 1.40181C63.664 1.1202 63.4468 0.886273 63.1835 0.698533H63.1821C62.8236 0.443743 62.4101 0.261963 61.9385 0.261963H61.9266C60.7158 0.261963 59.7385 1.24536 59.7385 2.45822C59.7385 3.67108 60.7277 4.65448 61.9385 4.65448ZM76.8723 13.4395H76.8604C75.6491 13.4395 74.673 14.4229 74.673 15.6358C74.673 16.8487 75.661 17.8321 76.8723 17.8321C78.0835 17.8321 79.0656 16.8487 79.0656 15.6358C79.0656 14.4229 78.0835 13.4395 76.8723 13.4395ZM61.9378 26.617H61.9259C60.7147 26.617 59.7385 27.6004 59.7385 28.8133C59.7385 30.0247 60.7266 31.0096 61.9378 31.0096C63.149 31.0096 64.1311 30.0247 64.1311 28.8133C64.1311 27.6004 63.149 26.617 61.9378 26.617ZM61.9378 65.2713H61.9259C60.7147 65.2713 59.7385 66.2547 59.7385 67.469C59.7385 68.6804 60.7266 69.6638 61.9378 69.6638C63.149 69.6638 64.1311 68.6804 64.1311 67.469C64.1311 66.2547 63.149 65.2713 61.9378 65.2713ZM61.9378 52.0937H61.9259C60.7147 52.0937 59.7385 53.0771 59.7385 54.29C59.7385 55.5028 60.7266 56.4862 61.9378 56.4862C63.149 56.4862 64.1311 55.5028 64.1311 54.29C64.1311 53.0771 63.149 52.0937 61.9378 52.0937ZM61.9378 39.7947H61.9259C60.7147 39.7947 59.7385 40.7766 59.7385 41.991C59.7385 43.2023 60.7266 44.1872 61.9378 44.1872C63.149 44.1872 64.1311 43.2023 64.1311 41.991C64.1311 40.7766 63.149 39.7947 61.9378 39.7947ZM61.9378 78.4489H61.9259C60.7147 78.4489 59.7385 79.4311 59.7385 80.6459C59.7385 81.8577 60.7266 82.8414 61.9378 82.8414C63.149 82.8414 64.1311 81.8577 64.1311 80.6459C64.1311 79.4311 63.149 78.4489 61.9378 78.4489ZM32.0682 56.4862C33.2794 56.4862 34.2615 55.5028 34.2615 54.29C34.2615 53.0771 33.2794 52.0937 32.0682 52.0937H32.0578C30.8451 52.0937 29.869 53.0771 29.869 54.29C29.869 55.5028 30.857 56.4862 32.0682 56.4862ZM33.6187 92.2703C33.5532 92.2048 33.4639 92.172 33.391 92.1168C33.0205 91.8277 32.5756 91.6264 32.0682 91.6264H32.0563C30.8451 91.6264 29.869 92.6087 29.869 93.8235C29.869 94.4197 30.1115 94.9562 30.4984 95.3527C30.4999 95.3542 30.4999 95.3557 30.5013 95.3557C30.9001 95.7641 31.4537 96.019 32.0682 96.019C32.1843 96.019 32.2839 95.9713 32.3955 95.9534C32.397 95.9534 32.3985 95.9519 32.4 95.9519C32.9178 95.8714 33.3702 95.6329 33.699 95.2558C33.7526 95.1977 33.7838 95.1262 33.83 95.0621C33.9297 94.9205 34.0353 94.7863 34.1008 94.6239C34.199 94.3809 34.257 94.1156 34.2585 93.8324C34.2585 93.8294 34.2615 93.8279 34.2615 93.8235C34.2615 93.266 34.0368 92.7712 33.696 92.3836C33.6648 92.3479 33.6514 92.3017 33.6187 92.2703ZM90.9516 30.8368C91.2151 30.9485 91.5038 31.0096 91.8075 31.0096C92.1275 31.0096 92.4267 30.9336 92.7006 30.81C92.7095 30.8055 92.7155 30.7981 92.7244 30.7936C92.9923 30.6685 93.223 30.4927 93.418 30.2752C93.7723 29.8865 94 29.3801 94 28.814C94 27.6016 93.0176 26.617 91.8075 26.617H91.7956C90.584 26.617 89.6075 27.6016 89.6075 28.814C89.6075 29.7226 90.1627 30.5031 90.9516 30.8368ZM91.8075 44.1872C93.0176 44.1872 94 43.2023 94 41.991C94 40.7766 93.0176 39.7947 91.8075 39.7947H91.7956C90.584 39.7947 89.6075 40.7766 89.6075 41.991C89.6075 43.2023 90.5944 44.1872 91.8075 44.1872ZM91.8075 56.4862C93.0176 56.4862 94 55.5028 94 54.29C94 53.0771 93.0176 52.0937 91.8075 52.0937H91.7956C90.584 52.0937 89.6075 53.0771 89.6075 54.29C89.6075 55.5028 90.5944 56.4862 91.8075 56.4862ZM47.0027 26.617H46.9923C45.781 26.617 44.8034 27.6004 44.8034 28.8133C44.8034 30.0247 45.7915 31.0096 47.0027 31.0096C48.2139 31.0096 49.196 30.0247 49.196 28.8133C49.196 27.6004 48.2139 26.617 47.0027 26.617ZM47.0027 13.4395H46.9923C45.781 13.4395 44.8034 14.4229 44.8034 15.6358C44.8034 16.8487 45.7915 17.8321 47.0027 17.8321C48.2139 17.8321 49.196 16.8487 49.196 15.6358C49.196 14.4229 48.2139 13.4395 47.0027 13.4395ZM47.0027 0.261963H46.9923C45.781 0.261963 44.8034 1.24536 44.8034 2.45822C44.8034 3.67108 45.7915 4.65448 47.0027 4.65448C48.2139 4.65448 49.196 3.67108 49.196 2.45822C49.196 1.24536 48.2139 0.261963 47.0027 0.261963ZM32.0682 82.8414C33.2794 82.8414 34.2615 81.8577 34.2615 80.6459C34.2615 79.4311 33.2794 78.4489 32.0682 78.4489H32.0578C30.8451 78.4489 29.869 79.4311 29.869 80.6459C29.869 81.8577 30.857 82.8414 32.0682 82.8414ZM32.0682 69.6638C33.2794 69.6638 34.2615 68.6804 34.2615 67.469C34.2615 66.2547 33.2794 65.2713 32.0682 65.2713H32.0578C30.8451 65.2713 29.869 66.2547 29.869 67.469C29.869 68.6804 30.857 69.6638 32.0682 69.6638ZM47.0027 39.7947H46.9923C45.781 39.7947 44.8034 40.7766 44.8034 41.991C44.8034 43.2023 45.7915 44.1872 47.0027 44.1872C48.2139 44.1872 49.196 43.2023 49.196 41.991C49.196 40.7766 48.2139 39.7947 47.0027 39.7947ZM61.9378 13.4395H61.9259C60.7147 13.4395 59.7385 14.4229 59.7385 15.6358C59.7385 16.8487 60.7266 17.8321 61.9378 17.8321C63.149 17.8321 64.1311 16.8487 64.1311 15.6358C64.1311 14.4229 63.149 13.4395 61.9378 13.4395ZM47.0027 78.4489H46.9923C45.781 78.4489 44.8034 79.4311 44.8034 80.6459C44.8034 81.8577 45.7915 82.8414 47.0027 82.8414C48.2139 82.8414 49.196 81.8577 49.196 80.6459C49.196 79.4311 48.2139 78.4489 47.0027 78.4489ZM47.0027 91.6264H46.9923C45.781 91.6264 44.8034 92.6102 44.8034 93.8235C44.8034 95.0367 45.7915 96.019 47.0027 96.019C48.2139 96.019 49.196 95.0367 49.196 93.8235C49.196 92.6102 48.2139 91.6264 47.0027 91.6264ZM47.0027 65.2713H46.9923C45.781 65.2713 44.8034 66.2547 44.8034 67.469C44.8034 68.6804 45.7915 69.6638 47.0027 69.6638C48.2139 69.6638 49.196 68.6804 49.196 67.469C49.196 66.2547 48.2139 65.2713 47.0027 65.2713ZM47.0027 52.0937H46.9923C45.781 52.0937 44.8034 53.0771 44.8034 54.29C44.8034 55.5028 45.7915 56.4862 47.0027 56.4862C48.2139 56.4862 49.196 55.5028 49.196 54.29C49.196 53.0771 48.2139 52.0937 47.0027 52.0937Z" fill="white"/>
</svg>
